
<svg xmlns="http://www.w3.org/2000/svg" version="1.1" xmlns:xlink="http://www.w3.org/1999/xlink" preserveAspectRatio="none" x="0px" y="0px" width="380px" height="69px" viewBox="0 0 380 69">
<defs/>

<g id="gym_svg">
<g transform="matrix( 1, 0, 0, 1, 0,0) ">
<g>
<g>
<path fill="#3E38F2" stroke="none" d="
M 129 26
L 117.75 26 117.75 64.75 129 64.75 129 26
M 87.25 37.05
L 87.25 23.7 113.65 23.7 113.65 14.35 75.6 14.35 75.6 64.75 87.25 64.75 87.25 46.4 110.55 46.4 110.55 37.05 87.25 37.05
M 131.8 35.55
L 137.8 35.55 137.8 51.45
Q 137.8 58.3 141.6 61.8 145.35 65.3 152.25 65.3 154.95 65.3 157.35 64.7 159.75 64.1 161.4 62.9
L 158.4 54.95
Q 156.55 56.4 153.85 56.4 151.55 56.4 150.3 55.1 149.05 53.75 149.05 51.3
L 149.05 35.55 158.65 35.55 158.65 26.9 149.05 26.9 149.05 17.45 137.8 17.45 137.8 26.9 131.8 26.9 131.8 35.55
M 128.45 9.8
Q 126.5 8.1 123.4 8.1 120.3 8.1 118.35 9.85 116.45 11.7 116.45 14.35 116.45 17 118.35 18.8 120.3 20.65 123.4 20.65 126.5 20.65 128.45 18.75 130.4 16.95 130.4 14.15 130.4 11.55 128.45 9.8
M 175.95 45.6
Q 175.95 40.4 178.5 37.8 181 35.15 185.25 35.15 189.1 35.15 191.1 37.45 193.1 39.7 193.1 44.3
L 193.1 64.75 204.35 64.75 204.35 42.55
Q 204.35 34.1 199.9 29.75 195.5 25.45 188.25 25.45 184.35 25.45 181 26.8 177.7 28.1 175.5 30.55
L 175.5 26 164.7 26 164.7 64.75 175.95 64.75 175.95 45.6
M 293.45 26
L 282.2 26 282.2 64.75 293.45 64.75 293.45 26
M 249.3 35.55
L 255.3 35.55 255.3 51.45
Q 255.3 58.3 259.1 61.8 262.85 65.3 269.75 65.3 272.45 65.3 274.85 64.7 277.25 64.1 278.9 62.9
L 275.9 54.95
Q 274.05 56.4 271.35 56.4 269.05 56.4 267.8 55.1 266.55 53.75 266.55 51.3
L 266.55 35.55 276.15 35.55 276.15 26.9 266.55 26.9 266.55 17.45 255.3 17.45 255.3 26.9 249.3 26.9 249.3 35.55
M 249.25 48.55
Q 249.45 45.75 249.45 45.5 249.45 39.45 246.8 34.9 244.15 30.35 239.55 27.85 234.95 25.45 229.25 25.45 223.4 25.45 218.7 28 214 30.55 211.3 35.1 208.6 39.7 208.6 45.4 208.6 51.15 211.35 55.7 214.05 60.2 219.15 62.8 224.15 65.3 230.7 65.3 241.2 65.3 246.7 59.05
L 240.7 52.6
Q 238.7 54.5 236.35 55.45 234 56.3 231 56.3 226.6 56.3 223.65 54.25 220.7 52.15 219.9 48.55
L 249.25 48.55
M 235.7 36.15
Q 238.25 38.3 238.85 42
L 219.75 42
Q 220.35 38.25 222.95 36.1 225.55 33.9 229.35 33.9 233.1 33.9 235.7 36.15
M 292.9 9.8
Q 290.95 8.1 287.85 8.1 284.75 8.1 282.8 9.85 280.9 11.7 280.9 14.35 280.9 17 282.8 18.8 284.75 20.65 287.85 20.65 290.95 20.65 292.9 18.75 294.85 16.95 294.85 14.15 294.85 11.55 292.9 9.8
M 336.95 35.3
Q 334.85 30.55 330.3 28 325.7 25.45 319.6 25.45 313.4 25.45 308.5 28 303.55 30.55 300.75 35.1 298 39.6 298 45.4 298 51.15 300.75 55.7 303.55 60.2 308.5 62.8 313.4 65.3 319.6 65.3 325.7 65.3 330.3 62.75 334.85 60.15 336.95 55.55
L 328.25 50.8
Q 325.3 56.1 319.55 56.1 315.15 56.1 312.25 53.2 309.4 50.35 309.4 45.4 309.4 40.4 312.25 37.55 315.15 34.65 319.55 34.65 325.25 34.65 328.25 39.95
L 336.95 35.3
M 377.35 35.1
Q 374.65 30.55 369.8 28 365 25.45 358.9 25.45 352.75 25.45 347.85 28 343 30.55 340.3 35.1 337.55 39.6 337.55 45.4 337.55 51.15 340.3 55.7 343 60.2 347.85 62.8 352.75 65.3 358.9 65.3 365 65.3 369.8 62.8 374.65 60.2 377.35 55.7 380.1 51.15 380.1 45.4 380.1 39.6 377.35 35.1
M 365.95 37.55
Q 368.7 40.5 368.7 45.4 368.7 50.25 365.95 53.2 363.2 56.1 358.9 56.1 354.55 56.1 351.75 53.2 348.95 50.25 348.95 45.4 348.95 40.5 351.75 37.55 354.55 34.65 358.9 34.65 363.2 34.65 365.95 37.55 Z"/>
</g>
</g>
</g>

<g transform="matrix( 0.134979248046875, 0, 0, 0.134979248046875, -0.8,0) ">
<g>
<g>
<path fill="#3E38F2" stroke="none" d="
M 220.85 106.55
Q 206.15 121.2 206.15 141.9 206.15 162.6 220.85 177.3 235.5 192 256.2 192 276.95 192 291.6 177.3 306.3 162.6 306.3 141.9 306.3 121.2 291.6 106.55 276.95 91.85 256.2 91.85 235.5 91.85 220.85 106.55
M 222.85 141.9
Q 222.85 128.1 232.65 118.3 242.4 108.5 256.2 108.5 270.05 108.5 279.8 118.3 289.6 128.1 289.6 141.9 289.6 155.7 279.8 165.5 270.05 175.3 256.2 175.3 242.4 175.3 232.65 165.5 222.85 155.7 222.85 141.9 Z"/>
</g>
</g>
</g>

<g transform="matrix( 0.134979248046875, 0, 0, 0.134979248046875, -0.8,0) ">
<g>
<g>
<path fill="#3E38F2" stroke="none" d="
M 409.3 82.85
Q 408 78 405 74.1 402 70.15 397.65 67.65 388.65 62.5 378.65 65.2 368.6 67.9 363.4 76.9
L 293.45 202
Q 291.75 205.05 292.7 208.35 293.65 211.65 296.65 213.35 299.7 215.05 303 214.1 306.3 213.15 308 210.15
L 377.9 85.15
Q 379.65 82.2 382.95 81.3 386.3 80.4 389.3 82.1 392.3 83.9 393.15 87.2 394.1 90.5 392.3 93.6
L 312.6 236.15
Q 311.9 237.45 310.65 238.45 308 240.6 307.65 244.05 307.3 247.5 309.5 250.15 312 253.25 315.95 253.25 318.9 253.25 321.25 251.35 324.8 248.5 327.1 244.4
L 406.8 101.85
Q 409.3 97.5 409.95 92.6 410.6 87.7 409.3 82.85 Z"/>
</g>
</g>
</g>

<g transform="matrix( 0.134979248046875, 0, 0, 0.134979248046875, -0.8,0) ">
<g>
<g>
<path fill="#3E38F2" stroke="none" d="
M 159.4 370.85
Q 155.95 370.95 153.55 373.45
L 62.45 469.55
Q 58.95 473.15 57.1 477.75 55.3 482.35 55.35 487.3 55.4 492.3 57.35 496.9 59.3 501.4 62.9 504.95 66.5 508.4 71.1 510.25 75.55 512 80.35 512 85.35 512 89.95 510.1 94.7 508.15 98.35 504.4
L 190.5 407.3
Q 192.85 404.8 192.75 401.35 192.65 397.9 190.15 395.5 187.65 393.15 184.2 393.2 180.75 393.3 178.35 395.8
L 86.35 492.85
Q 83.95 495.3 80.5 495.35 77.05 495.4 74.55 493 72.05 490.6 72.05 487.15 72.05 483.65 74.5 481.1
L 165.65 384.95
Q 168.05 382.45 167.95 379 167.85 375.55 165.35 373.15 162.85 370.8 159.4 370.85 Z"/>
</g>
</g>
</g>

<g transform="matrix( 0.134979248046875, 0, 0, 0.134979248046875, -0.8,0) ">
<g>
<g>
<path fill="#3E38F2" stroke="none" d="
M 117.6 67.65
Q 108.65 72.8 105.95 82.85 103.25 92.85 108.35 101.75
L 188.15 244.5
Q 190.55 248.55 193.9 251.3 196.15 253.2 199.2 253.2 203.15 253.2 205.65 250.15 207.85 247.5 207.55 244.05 207.2 240.6 204.5 238.4 203.5 237.6 202.7 236.25
L 122.9 93.5
Q 121.15 90.55 122.05 87.2 122.95 83.8 125.95 82.1 128.9 80.4 132.25 81.3 135.6 82.15 137.3 85.05
L 207.2 210.15
Q 208.9 213.2 212.2 214.1 215.55 215.05 218.55 213.35 221.6 211.65 222.55 208.35 223.5 205.05 221.8 202
L 151.8 76.8
Q 146.65 67.85 136.6 65.15 126.55 62.5 117.6 67.65 Z"/>
</g>
</g>
</g>

<g transform="matrix( 0.134979248046875, 0, 0, 0.134979248046875, -0.8,0) ">
<g>
<g>
<path fill="#3E38F2" stroke="none" d="
M 350.5 338.05
Q 347.3 339.3 345.85 342.45 344.45 345.6 345.7 348.85 346.95 352.05 350.1 353.45
L 401.5 376.3
Q 404.1 377.45 405.45 380 406.8 382.5 406.35 385.3
L 389.65 485.45
Q 389.1 488.85 386.3 490.85 383.5 492.9 380.05 492.3 376.6 491.75 374.65 488.95 372.6 486.05 373.2 482.7
L 387.75 395.3
Q 388.25 392.5 386.9 390 385.55 387.45 382.9 386.3
L 348.6 371.05
Q 345.45 369.65 342.2 370.9 339 372.15 337.6 375.3 336.2 378.45 337.4 381.7 338.65 384.9 341.85 386.3
L 370.2 398.95 356.7 479.95
Q 355.9 484.9 357 489.75 358.15 494.55 361.05 498.65 363.95 502.7 368.15 505.3 372.35 507.95 377.3 508.8 379.4 509.1 381.45 509.1 390.65 509.1 397.6 503.2 404.6 497.25 406.1 488.2
L 422.8 388.05
Q 424.2 379.6 420.15 372.1 416.1 364.55 408.3 361.05
L 356.9 338.2
Q 353.7 336.8 350.5 338.05 Z"/>
</g>
</g>
</g>

<g transform="matrix( 0.134979248046875, 0, 0, 0.134979248046875, -0.8,0) ">
<g>
<g>
<path fill="#3E38F2" stroke="none" d="
M 363.55 327.35
Q 362.2 324.3 359.15 323.05
L 315.25 304.55 323 229.35
Q 323 217.35 314.5 208.85 305.95 200.3 293.95 200.3
L 218.5 200.3
Q 206.45 200.3 198 208.95 189.45 217.6 189.5 230.15
L 197.45 315.45 147.7 360.5
Q 144.95 363 144.95 366.65 144.9 370.25 147.6 372.8
L 196.5 418.3
Q 199 420.55 202.15 420.55
L 202.55 420.5
Q 206.05 420.35 208.4 417.75
L 259.75 360.65 333.1 393.9
Q 336.4 395.4 339.8 393.95 343.15 392.45 344.4 389.05
L 363.8 333.5
Q 364.9 330.4 363.55 327.35
M 345.45 335.4
L 331.65 374.9 261.05 342.95
Q 258.55 341.85 255.9 342.4 253.25 342.95 251.4 344.95
L 201.65 400.3 165.65 366.8 211.75 325.05
Q 214.85 322.2 214.45 318.05
L 206.15 229.35
Q 206.15 224.25 209.8 220.65 213.4 217 218.5 217
L 293.95 217
Q 298.95 217 302.55 220.5 306.15 224 306.3 229
L 298 309
Q 297.7 311.7 299.1 314.1 300.5 316.45 303.05 317.55
L 345.45 335.4 Z"/>
</g>
</g>
</g>

<g transform="matrix( 0.134979248046875, 0, 0, 0.134979248046875, -0.8,0) ">
<g>
<g>
<path fill="#3E38F2" stroke="none" d="
M 429.05 69.25
Q 426.6 66.8 423.15 66.8
L 89.3 66.8
Q 85.85 66.8 83.4 69.25 80.95 71.7 80.95 75.15 80.95 78.6 83.4 81.05 85.85 83.5 89.3 83.5
L 423.15 83.5
Q 426.6 83.5 429.05 81.05 431.5 78.6 431.5 75.15 431.5 71.7 429.05 69.25 Z"/>
</g>
</g>
</g>

<g transform="matrix( 0.134979248046875, 0, 0, 0.134979248046875, -0.8,0) ">
<g>
<g>
<path fill="#3E38F2" stroke="none" d="
M 95.2 2.45
Q 92.75 0 89.3 0
L 64.25 0
Q 60.8 0 58.4 2.45 55.95 4.9 55.95 8.35
L 55.95 141.9
Q 55.95 145.35 58.4 147.8 60.8 150.25 64.25 150.25
L 89.3 150.25
Q 92.75 150.25 95.2 147.8 97.65 145.35 97.65 141.9
L 97.65 8.35
Q 97.65 4.9 95.2 2.45
M 72.6 16.7
L 80.95 16.7 80.95 133.55 72.6 133.55 72.6 16.7 Z"/>
</g>
</g>
</g>

<g transform="matrix( 0.134979248046875, 0, 0, 0.134979248046875, -0.8,0) ">
<g>
<g>
<path fill="#3E38F2" stroke="none" d="
M 70.15 2.45
Q 67.75 0 64.25 0
L 39.25 0
Q 35.8 0 33.35 2.45 30.9 4.9 30.9 8.35
L 30.9 141.9
Q 30.9 145.35 33.35 147.8 35.8 150.25 39.25 150.25
L 64.25 150.25
Q 67.75 150.25 70.15 147.8 72.6 145.35 72.6 141.9
L 72.6 8.35
Q 72.6 4.9 70.15 2.45
M 47.6 16.7
L 55.95 16.7 55.95 133.55 47.6 133.55 47.6 16.7 Z"/>
</g>
</g>
</g>

<g transform="matrix( 0.134979248046875, 0, 0, 0.134979248046875, -0.8,0) ">
<g>
<g>
<path fill="#3E38F2" stroke="none" d="
M 473.2 0
L 448.15 0
Q 444.7 0 442.3 2.45 439.85 4.9 439.85 8.35
L 439.85 141.9
Q 439.85 145.35 442.3 147.8 444.7 150.25 448.15 150.25
L 473.2 150.25
Q 476.65 150.25 479.1 147.8 481.55 145.35 481.55 141.9
L 481.55 8.35
Q 481.55 4.9 479.1 2.45 476.65 0 473.2 0
M 456.5 16.7
L 464.85 16.7 464.85 133.55 456.5 133.55 456.5 16.7 Z"/>
</g>
</g>
</g>

<g transform="matrix( 0.134979248046875, 0, 0, 0.134979248046875, -0.8,0) ">
<g>
<g>
<path fill="#3E38F2" stroke="none" d="
M 454.05 2.45
Q 451.65 0 448.15 0
L 423.15 0
Q 419.7 0 417.25 2.45 414.8 4.9 414.8 8.35
L 414.8 141.9
Q 414.8 145.35 417.25 147.8 419.7 150.25 423.15 150.25
L 448.15 150.25
Q 451.65 150.25 454.05 147.8 456.5 145.35 456.5 141.9
L 456.5 8.35
Q 456.5 4.9 454.05 2.45
M 431.5 16.7
L 439.85 16.7 439.85 133.55 431.5 133.55 431.5 16.7 Z"/>
</g>
</g>
</g>

<g transform="matrix( 0.134979248046875, 0, 0, 0.134979248046875, -0.8,0) ">
<g>
<g>
<path fill="#3E38F2" stroke="none" d="
M 14.2 83.5
L 39.25 83.5
Q 42.7 83.5 45.15 81.05 47.6 78.6 47.6 75.15 47.6 71.7 45.15 69.25 42.7 66.8 39.25 66.8
L 14.2 66.8
Q 10.75 66.8 8.3 69.25 5.85 71.7 5.85 75.15 5.85 78.6 8.3 81.05 10.75 83.5 14.2 83.5 Z"/>
</g>
</g>
</g>

<g transform="matrix( 0.134979248046875, 0, 0, 0.134979248046875, -0.8,0) ">
<g>
<g>
<path fill="#3E38F2" stroke="none" d="
M 504.15 69.25
Q 501.7 66.8 498.25 66.8
L 473.2 66.8
Q 469.75 66.8 467.3 69.25 464.85 71.7 464.85 75.15 464.85 78.6 467.3 81.05 469.75 83.5 473.2 83.5
L 498.25 83.5
Q 501.7 83.5 504.15 81.05 506.6 78.6 506.6 75.15 506.6 71.7 504.15 69.25 Z"/>
</g>
</g>
</g>
</g>
</svg>
